<mxfile host="Electron" agent="Mozilla/5.0 (Windows NT 10.0; Win64; x64) AppleWebKit/537.36 (KHTML, like Gecko) draw.io/26.2.2 Chrome/134.0.6998.178 Electron/35.1.2 Safari/537.36" version="26.2.2">
  <diagram name="Page-1" id="kBzjuA-HmhJBuekbJN5_">
    <mxGraphModel dx="1182" dy="691" grid="1" gridSize="10" guides="1" tooltips="1" connect="1" arrows="1" fold="1" page="1" pageScale="1" pageWidth="850" pageHeight="1100" math="0" shadow="0">
      <root>
        <mxCell id="0" />
        <mxCell id="1" parent="0" />
        <mxCell id="Lby27R24gmd_tmXuZr5L-13" value="&lt;font style=&quot;font-size: 14px;&quot;&gt;price-index-pipeline&lt;br&gt;&lt;/font&gt;&lt;br&gt;&lt;br&gt;&lt;br&gt;&lt;br&gt;&lt;br&gt;&lt;br&gt;&lt;br&gt;&lt;br&gt;&lt;br&gt;&lt;br&gt;&lt;br&gt;&lt;br&gt;&lt;br&gt;&lt;div&gt;&lt;br&gt;&lt;br&gt;&lt;br&gt;&lt;/div&gt;" style="shape=card;direction=south;whiteSpace=wrap;html=1;fillColor=#f5f5f5;fontColor=#333333;strokeColor=#666666;size=40;comic=0;treeMoving=0;treeFolding=0;sketch=1;curveFitting=1;jiggle=2;shadow=1;" vertex="1" parent="1">
          <mxGeometry x="160" y="500" width="240" height="270" as="geometry" />
        </mxCell>
        <mxCell id="Lby27R24gmd_tmXuZr5L-14" value="LICENCE" style="text;html=1;align=left;verticalAlign=middle;whiteSpace=wrap;rounded=0;sketch=1;curveFitting=1;jiggle=2;shadow=1;" vertex="1" parent="1">
          <mxGeometry x="200" y="671" width="60" height="20" as="geometry" />
        </mxCell>
        <mxCell id="Lby27R24gmd_tmXuZr5L-16" value=".gitignore" style="text;html=1;align=left;verticalAlign=middle;whiteSpace=wrap;rounded=0;sketch=1;curveFitting=1;jiggle=2;shadow=1;" vertex="1" parent="1">
          <mxGeometry x="200" y="692" width="60" height="20" as="geometry" />
        </mxCell>
        <mxCell id="Lby27R24gmd_tmXuZr5L-17" value="README" style="text;html=1;align=left;verticalAlign=middle;whiteSpace=wrap;rounded=0;sketch=1;curveFitting=1;jiggle=2;shadow=1;" vertex="1" parent="1">
          <mxGeometry x="200" y="741" width="60" height="20" as="geometry" />
        </mxCell>
        <mxCell id="Lby27R24gmd_tmXuZr5L-18" value="environment" style="text;html=1;align=left;verticalAlign=middle;whiteSpace=wrap;rounded=0;sketch=1;curveFitting=1;jiggle=2;shadow=1;" vertex="1" parent="1">
          <mxGeometry x="200" y="717" width="60" height="20" as="geometry" />
        </mxCell>
        <mxCell id="Lby27R24gmd_tmXuZr5L-20" value="data (input)" style="image;aspect=fixed;html=1;points=[];align=left;fontSize=14;image=img/lib/azure2/general/Folder_Blank.svg;labelPosition=right;verticalLabelPosition=middle;verticalAlign=middle;labelBackgroundColor=none;sketch=1;curveFitting=1;jiggle=2;shadow=1;" vertex="1" parent="1">
          <mxGeometry x="202" y="550" width="24.64" height="20" as="geometry" />
        </mxCell>
        <mxCell id="Lby27R24gmd_tmXuZr5L-21" value="functions (code)" style="image;aspect=fixed;html=1;points=[];align=left;fontSize=14;image=img/lib/azure2/general/Folder_Blank.svg;labelPosition=right;verticalLabelPosition=middle;verticalAlign=middle;labelBackgroundColor=none;sketch=1;curveFitting=1;jiggle=2;shadow=1;" vertex="1" parent="1">
          <mxGeometry x="202" y="580" width="24.64" height="20" as="geometry" />
        </mxCell>
        <mxCell id="Lby27R24gmd_tmXuZr5L-23" value="output (data)" style="image;aspect=fixed;html=1;points=[];align=left;fontSize=14;image=img/lib/azure2/general/Folder_Blank.svg;labelPosition=right;verticalLabelPosition=middle;verticalAlign=middle;labelBackgroundColor=none;sketch=1;curveFitting=1;jiggle=2;shadow=1;" vertex="1" parent="1">
          <mxGeometry x="202" y="611" width="24.64" height="20" as="geometry" />
        </mxCell>
        <mxCell id="Lby27R24gmd_tmXuZr5L-24" value="docs" style="image;aspect=fixed;html=1;points=[];align=left;fontSize=14;image=img/lib/azure2/general/Folder_Blank.svg;labelPosition=right;verticalLabelPosition=middle;verticalAlign=middle;labelBackgroundColor=none;sketch=1;curveFitting=1;jiggle=2;shadow=1;" vertex="1" parent="1">
          <mxGeometry x="202" y="642" width="24.64" height="20" as="geometry" />
        </mxCell>
      </root>
    </mxGraphModel>
  </diagram>
</mxfile>
